<svg xmlns="http://www.w3.org/2000/svg">
    <symbol id="svg-archive" viewBox="0 0 56 56">
        <g>
            <path d="M18,34.486v4.028C18,38.782,18.218,39,18.486,39h19.028C37.782,39,38,38.782,38,38.514v-4.028
		C38,33.115,39.115,32,40.486,32h15.228L45.713,3H10.287l-10,29h15.227C16.885,32,18,33.115,18,34.486z M14,8h28v6h-2v-4H16v4h-2V8z
		 M11,16h34v6h-2v-4H13v4h-2V16z M10,30H8v-6h40v6h-2v-4H10V30z"/>
	        <path d="M40,34.486v4.028C40,39.885,38.885,41,37.514,41H18.486C17.115,41,16,39.885,16,38.514v-4.028
		C16,34.218,15.782,34,15.514,34H0v15.375C0,51.374,1.626,53,3.625,53h48.749C54.374,53,56,51.374,56,49.375V34H40.486
		C40.218,34,40,34.218,40,34.486z"/>
        </g>
    </symbol>
    <symbol id="svg-quote" viewBox="0 0 1200 1200">
        <g>
            <path d="M518.474,105.344C305.831,120.286,0.168,154.236,0,570.687v523.97h474.504
	v-560.61H316.946C306.965,384.354,430.23,345.701,564.274,316.03L518.474,105.344z M1154.198,105.344
	c-212.643,14.942-518.306,48.893-518.473,465.343v523.97h474.505v-560.61H952.672C942.689,384.354,1065.956,345.701,1200,316.03
	L1154.198,105.344L1154.198,105.344z"/>
        </g>
    </symbol>
    <symbol id="svg-random_thought" viewBox="0 0 494.557 494.557">
        <g>
            <path d="M494.238,129.481l-19.206-10.984c1.786-3.575,9.405-10.362,14.494-14.646c0.927-0.786,1.336-2.017,1.08-3.198
	c-0.268-1.184-1.167-2.123-2.34-2.438c-36.194-9.709-69.483-1.905-69.483-1.905c4.944-6.743,15.559-14.381,22.783-19.14
	c1.141-0.75,1.688-2.133,1.384-3.459c-0.304-1.325-1.417-2.314-2.767-2.484c-66.499-8.319-121.243,21.577-121.684,21.82
	c-6.946-29.038-2.452-60.31,1.792-79.146c0.858-3.954-0.42-8.094-3.386-10.835c-2.948-2.742-7.153-3.749-11.02-2.597
	c-40.696,12.122-74.804,66.169-95.915,108.253c-12.646,7.243-24.149,16.608-33.909,27.89
	c-57.793,66.835-105.779,73.105-105.779,73.105h-36.69c-18.376,0-33.271,26.684-33.271,59.593c0,32.906,14.896,59.579,33.271,59.579
	h47.776c25.895,55.848,111.486,63.284,156.304,87.689c18.105,9.858,33.13,19.883,45.461,29.321
	c41.289,31.591,91.459,48.659,143.472,48.659c37.35,0,67.634-30.284,67.634-67.633V129.481z M21.926,288.628
	c-4.549,0-8.232-7.442-8.232-16.624c0-9.181,3.683-16.626,8.232-16.626c4.552,0,8.232,7.445,8.232,16.626
	C30.158,281.185,26.478,288.628,21.926,288.628z M166.575,325.104c-1.456,6.125-6.28,10.876-12.429,12.234l-2.648,0.587
	c-10.039,2.22-20.578-0.16-28.698-6.464c-41.448-32.164-29.512-71.569-19.118-91.709c0.927-1.786,2.886-2.781,4.871-2.474
	c1.988,0.304,3.557,1.839,3.901,3.817c4.686,26.764,28.451,51.176,48.5,67.502C165.833,312.577,168.02,318.977,166.575,325.104z
	 M183.473,203.523c-5.673,0-10.272-4.597-10.272-10.27c0-5.67,4.599-10.27,10.272-10.27c5.67,0,10.27,4.599,10.27,10.27
	C193.743,198.925,189.143,203.523,183.473,203.523z"/>
        </g>
    </symbol>
    <symbol id="svg-idea" viewBox="0 0 489.6 489.6">
        <g>
            <path d="M316.353,410.5V429c0,14.7-10.8,26.8-24.9,28.7l-4.5,16.6c-2.6,8.9-10.8,15.3-19.8,15.3h-44.7c-9.6,0-17.9-6.4-19.8-15.3
			l-4.5-16.6c-14-1.9-24.9-14-24.9-28.7v-18.5c0-9.6,7.7-17.9,17.9-17.9h107.8C308.653,393.3,316.353,401,316.353,410.5z
			 M330.453,334.9c-3.2,20.1-20.9,35.2-41.2,35.2h-88.9c-20.8,0-38.2-14.8-41.2-35.2c-3.6-23.2-14.5-45.2-30.7-62
			c-28.6-30-44.6-68.9-45.3-109.8c-0.7-89.3,71-162.5,159.8-163.1h1.2c89.5,0,162.3,72.3,162.3,161.1c0,41.6-16.5,82.4-45.3,111.9
			C344.753,289.9,334.053,311.3,330.453,334.9z M335.753,248.2c22.4-23,35.3-54.7,35.3-87.2c0-69.3-56.9-125.6-126.9-125.6h-1
			c-69.2,0.5-125.1,57.6-124.6,127.3c0.5,31.8,13.1,62.2,35.4,85.6c21.2,21.8,35.5,50.7,40.2,81.2c0.5,3.6,3.5,5.1,6.2,5.1h27.7
			V230.7l-37-37c-6.5-6.5-6.5-17.1,0-23.7l0,0c6.5-6.5,17.1-6.5,23.7,0l30,30l30-30c6.5-6.5,17.1-6.5,23.7,0l0,0
			c6.5,6.5,6.5,17.1,0,23.7l-37,37v103.9h27.7c3.3,0,5.8-2.7,6.2-5.2C300.153,298.7,314.053,270.5,335.753,248.2z"/>
        </g>
    </symbol>
    <symbol id="svg-task" viewBox="0 0 335.302 335.302">
        <g>
            <path d="M319.555,0h-42.422c-12.278,0-23.913,8.69-27.063,20.558L233.956,81H14.814c-4.089,0-7.811,1.67-10.479,4.614
		c-2.668,2.944-3.916,6.831-3.515,10.901l11.405,115.809C13.011,220.298,20.17,227,28.182,227h183.423
		c7.753,0,15.413-6.066,17.438-13.551l21.406-79.26c0.593-1.066,1.068-2.061,1.395-3.295L278.672,30h40.884c8.284,0,15-6.716,15-15
		S327.84,0,319.555,0z"/>
	        <path d="M221.17,257h-202c-8.284,0-15,6.716-15,15s6.716,15,15,15h8.781c-2.128,4.416-3.321,9.364-3.321,14.585
		c0,18.591,15.125,33.717,33.718,33.717c18.591,0,33.717-15.125,33.717-33.717c0-5.221-1.193-10.169-3.321-14.585h66.737
		c-2.128,4.416-3.321,9.364-3.321,14.585c0,18.591,15.125,33.717,33.717,33.717s33.718-15.125,33.718-33.717
		c0-5.221-1.193-10.169-3.321-14.585h4.898c8.284,0,15-6.716,15-15S229.454,257,221.17,257z"/>
        </g>
    </symbol>
    <symbol id="svg-pencil" viewBox="0 0 326.999 326.999">
        <g>
            <path d="M325.348,35.361c-5.16-6.143-10.614-12.102-16.211-17.71c-5.568-5.576-11.517-11.04-17.681-16.238
		c-2.385-2.008-5.91-1.86-8.114,0.348l-21.155,21.187c-9.78-7.74-16.235-11.528-16.666-11.778c-2.355-1.366-5.334-0.977-7.258,0.95
		l-20.998,21.031c10.13,7.368,25.128,19.308,41.81,36.014c16.598,16.622,28.566,31.66,36.009,41.878l20.985-21.018
		c1.956-1.96,2.317-5.004,0.874-7.367c-0.289-0.473-4.702-7.635-13.055-18.054l21.111-21.145
		C327.196,41.258,327.348,37.743,325.348,35.361z"/>
	        <path d="M205.802,44.631L55.408,195.256c10.128,7.377,25.062,19.279,41.666,35.908c16.676,16.7,28.682,31.804,36.116,42.025
		l150.423-150.659c-6.892-9.639-18.882-25.057-35.861-42.062C230.628,63.32,215.301,51.407,205.802,44.631z"/>
	        <path d="M85.752,242.469c-16.165-16.189-30.729-27.712-40.302-34.652l-24.68,87.574c-0.467,0.303-0.911,0.655-1.32,1.065
		L2.586,313.347c-3.122,3.127-3.118,8.191,0.009,11.313c1.562,1.56,3.606,2.339,5.652,2.339c2.05,0,4.099-0.783,5.661-2.348
		l16.864-16.891c0.373-0.374,0.699-0.777,0.983-1.199l88.841-23.442C113.57,273.424,101.926,258.667,85.752,242.469z"/>
        </g>
    </symbol>
    <symbol id="svg-trash" viewBox="0 0 512 512">
        <g>
            <path d="M432,96h-48V32c0-17.672-14.328-32-32-32H160c-17.672,0-32,14.328-32,32v64H80c-17.672,0-32,14.328-32,32v32h416v-32
		C464,110.328,449.672,96,432,96z M192,96V64h128v32H192z"/>
	        <path d="M80,480.004C80,497.676,94.324,512,111.996,512h288.012C417.676,512,432,497.676,432,480.008v-0.004V192H80V480.004z
		 M320,272c0-8.836,7.164-16,16-16s16,7.164,16,16v160c0,8.836-7.164,16-16,16s-16-7.164-16-16V272z M240,272
		c0-8.836,7.164-16,16-16s16,7.164,16,16v160c0,8.836-7.164,16-16,16s-16-7.164-16-16V272z M160,272c0-8.836,7.164-16,16-16
		s16,7.164,16,16v160c0,8.836-7.164,16-16,16s-16-7.164-16-16V272z"/>
        </g>
    </symbol>
    <symbol id="svg-cross" viewBox="0 0 490 490">
        <g>
            <polygon points="386.813,0 245,141.812 103.188,0 0,103.188 141.813,245 0,386.812 103.187,489.999 245,348.187 386.813,490 
	490,386.812 348.187,244.999 490,103.187 "/>
        </g>
    </symbol>
     <!--</symbol>
    <symbol id="svg-quotes">
        <g>

        </g>
    </symbol>
    <symbol id="svg-quotes">
        <g>

        </g>
    </symbol>
    <symbol id="svg-quotes">
        <g>

        </g>
    </symbol>
    <symbol id="svg-quotes">
        <g>

        </g>
    </symbol> -->

</svg>